<svg width="21" height="21" viewBox="0 0 21 21" fill="none" xmlns="http://www.w3.org/2000/svg">
<path d="M1.77956 5.69146C2.61157 4.0347 3.88793 2.64197 5.46599 1.66893C7.04405 0.695884 8.86162 0.180874 10.7156 0.181458C13.4106 0.181458 15.6746 1.17246 17.4056 2.78646L14.5386 5.65446C13.5016 4.66346 12.1836 4.15846 10.7156 4.15846C8.11056 4.15846 5.90556 5.91846 5.12056 8.28146C4.92056 8.88146 4.80656 9.52146 4.80656 10.1815C4.80656 10.8415 4.92056 11.4815 5.12056 12.0815C5.90656 14.4455 8.11056 16.2045 10.7156 16.2045C12.0606 16.2045 13.2056 15.8495 14.1016 15.2495C14.621 14.9075 15.0657 14.4637 15.4088 13.945C15.7518 13.4262 15.9862 12.8433 16.0976 12.2315H10.7156V8.36346H20.1336C20.2516 9.01746 20.3156 9.69946 20.3156 10.4085C20.3156 13.4545 19.2256 16.0185 17.3336 17.7585C15.6796 19.2865 13.4156 20.1815 10.7156 20.1815C9.4022 20.182 8.1016 19.9237 6.88811 19.4213C5.67461 18.919 4.57201 18.1824 3.64332 17.2537C2.71463 16.325 1.97806 15.2224 1.4757 14.0089C0.973335 12.7954 0.715036 11.4948 0.715562 10.1815C0.715562 8.56746 1.10156 7.04146 1.77956 5.69146Z" fill="black"/>
</svg>
