<svg width="62" height="62" viewBox="0 0 62 62" fill="none" xmlns="http://www.w3.org/2000/svg">
<circle cx="31" cy="31" r="31" fill="black"/>
<g clip-path="url(#clip0_45_2)">
<path d="M33.892 38.3453L37.3161 37.5227C37.8011 37.4075 38.3091 37.2923 38.7857 37.4054C39.1107 37.4867 39.4024 37.6639 39.6213 37.9129C39.8403 38.1619 39.9758 38.4708 40.0097 38.7978C40.0853 39.6842 39.3652 40.1675 38.5716 40.3032C37.5219 40.4822 36.5183 40.8688 35.4686 41.0642L31.4798 41.7964C30.5686 41.965 29.3552 42.2386 28.5931 41.5084C28.3812 41.2982 28.216 41.0474 28.1076 40.7717C27.9992 40.4961 27.9501 40.2014 27.9632 39.9063L28.1165 32.453L27.9066 25.6661C27.9066 23.8507 28.5539 22.9417 29.8485 22.9389C31.1432 22.9362 31.7898 23.8452 31.7884 25.6661L31.5784 32.453C31.5322 33.9873 31.6456 35.538 31.696 37.0722C31.696 37.4219 31.5721 38.2589 31.8346 38.5448C32.2083 38.9212 32.8948 38.5818 33.3146 38.4811L33.892 38.3453Z" fill="#FFD130"/>
<path d="M15.1169 21.415C15.8759 20.7508 16.8193 20.3227 17.8273 20.1851C18.715 20.0438 19.6238 20.1022 20.4851 20.3558C21.2262 20.5871 21.903 20.9826 22.4628 21.5116C23.811 22.8094 24.6475 24.5322 24.8246 26.3756C24.8725 26.7467 24.8963 27.1204 24.896 27.4944C24.8624 29.0595 24.1654 30.7542 23.1766 31.9759C22.7777 32.4895 22.2787 32.9205 21.7086 33.2439C21.1385 33.5672 20.5086 33.7766 19.8553 33.8598C18.5145 34.0312 17.3465 33.7988 16.3514 33.1626C15.3563 32.5264 14.7824 31.6873 14.6299 30.6452C14.4899 29.5991 14.639 28.7079 15.077 27.9716C15.9168 26.621 17.4011 25.8025 19.5299 25.5159C20.3536 25.4165 21.1842 25.3828 22.0135 25.4152C21.744 24.5266 21.2365 23.7248 20.5439 23.0932C19.8777 22.505 19.1779 22.2603 18.4445 22.359C17.6215 22.47 16.7818 22.8622 15.9252 23.5354C15.6949 23.7393 15.4115 23.8767 15.1064 23.9323C14.8532 23.9694 14.5953 23.9073 14.3884 23.7596C14.281 23.688 14.1907 23.5945 14.1237 23.4855C14.0566 23.3765 14.0145 23.2546 14 23.1282C13.9412 22.6716 14.3135 22.1005 15.1169 21.415ZM17.1701 30.2257C17.2041 30.4419 17.2818 30.6493 17.3986 30.8357C17.5154 31.0222 17.669 31.184 17.8504 31.3116C18.2471 31.6139 18.7657 31.7229 19.4102 31.6365C19.8285 31.5806 20.2278 31.4304 20.5768 31.1977C20.9258 30.9651 21.2149 30.6563 21.4215 30.2956C21.9249 29.4792 22.2295 28.56 22.3116 27.6096C21.5003 27.5436 20.684 27.5684 19.8784 27.6836C18.9826 27.8029 18.2828 28.0868 17.779 28.5351C17.5377 28.7418 17.3549 29.006 17.2482 29.3022C17.1416 29.5983 17.1147 29.9164 17.1701 30.2257Z" fill="#FFD130"/>
<path d="M46.7509 24.6357C46.5977 24.6676 46.4415 24.6835 46.2848 24.683C45.7936 24.683 45.1567 24.4643 44.3744 24.0269C43.7115 23.6249 42.9533 23.3988 42.1742 23.3708C39.0943 23.3708 40.0748 26.0219 38.3553 27.2929C38.1767 27.4142 37.9676 27.4854 37.7507 27.4985C34.0683 27.8297 36.2223 22.6531 37.6143 21.5116C38.8253 20.5109 40.3654 19.9738 41.9495 20C43.6109 20 45.0357 20.3119 46.2239 20.9358C47.4122 21.5596 48.0077 22.2644 48.0105 23.05C48.0238 23.2739 47.9867 23.4979 47.9018 23.7062C47.8169 23.9144 47.6863 24.1019 47.5193 24.2552C47.3008 24.4446 47.0361 24.5756 46.7509 24.6357Z" fill="#FFD130"/>
</g>
<defs>
<clipPath id="clip0_45_2">
<rect width="34" height="22" fill="white" transform="translate(14 20)"/>
</clipPath>
</defs>
</svg>
